<svg width="48" height="48" fill="none" xmlns="http://www.w3.org/2000/svg"><path d="M45 24.916a8.155 8.155 0 01-2.4 5.814 8.16 8.16 0 01-5.78 2.415H11.18A8.219 8.219 0 013 24.916c0-2.266.906-4.336 2.4-5.814a8.16 8.16 0 015.78-2.414h.342C12.232 9.568 18.208 4 25.482 4c7.42 0 13.493 5.79 14.008 13.131A8.211 8.211 0 0145 24.916z" fill="#89D5FE"/><path d="M35.679 27.333v13.875a3.53 3.53 0 01-3.534 3.534H19.534A3.53 3.53 0 0116 41.208V22.534A3.53 3.53 0 0119.534 19h7.812l8.333 8.333z" fill="#2F77F1"/><path d="M21.099 34.936l4.273-4.29 4.308 4.29M25.39 30.645v8.58" stroke="#fff" stroke-width="1.81" stroke-miterlimit="10"/><path d="M27.346 27.182V19l8.181 8.182h-8.181z" fill="#C0E9FF"/></svg>