<svg width="48" height="48" fill="none" xmlns="http://www.w3.org/2000/svg"><path d="M29.52 13.039l3.268-4.447A1 1 0 0031.982 7H21.724a1 1 0 00-.805 1.593l3.276 4.446v1.72h5.324v-1.72z" fill="#99FFB5"/><path d="M43.732 39.49c0-.382-.111-.753-.312-1.066l-1.983-3.097a3.293 3.293 0 01-.373-1.534v-9.537c0-6.195-5.173-11.207-11.545-11.207h-5.334c-6.382 0-11.545 5.022-11.545 11.207v9.537c0 .537-.131 1.055-.373 1.534l-1.983 3.097a2.023 2.023 0 00-.312 1.065c0 1.104.926 2.003 2.074 2.013h29.612c1.148-.01 2.074-.909 2.074-2.013z" fill="#4ADF93"/><path d="M41.447 15.628c-.302-1.769-1.731-3.156-3.553-3.45 1.822-.292 3.251-1.68 3.553-3.448.302 1.768 1.731 3.156 3.553 3.449-1.822.293-3.251 1.67-3.553 3.449zM6.912 32.014C6.499 29.561 4.516 27.646 2 27.246c2.516-.401 4.5-2.326 4.912-4.769.413 2.443 2.396 4.368 4.912 4.769-2.516.4-4.5 2.315-4.912 4.768z" fill="#99FFB5"/><path d="M30.862 24.56h-1.924c-.113-.456-.34-.799-.68-1.141h2.604c.566 0 .906-.457.906-.913 0-.457-.453-.913-.906-.913h-8.036c-.566 0-.905.456-.905.913 0 .456.452.913.905.913h.905c1.359 0 2.49.456 3.17 1.141h-3.962c-.566 0-.905.456-.905.913 0 .456.453.913.905.913h4.414c-.113.342-.226.57-.452.799-.566.57-1.585.799-2.83.799-.34 0-.68 0-1.019-.115h-.34c-.112 0-.226.114-.339.229 0 0-.113 0-.113.114s-.113.114-.113.228 0 .114-.113.228v.457c0 .114.113.228.226.342l5.433 5.934c.226.228.453.343.68.343.225 0 .452-.114.678-.229.34-.342.453-.913 0-1.37L25.09 29.81c1.358-.114 2.377-.57 3.169-1.369.566-.57.905-1.255 1.018-2.168h1.698c.566 0 .906-.457.906-.913 0-.457-.566-.799-1.019-.799z" fill="#fff"/></svg>