<svg width="48" height="48" fill="none" xmlns="http://www.w3.org/2000/svg"><path d="M33.62 39.459H10.703a4.482 4.482 0 01-4.48-4.48v-19.21H38.1v19.21a4.482 4.482 0 01-4.48 4.48z" fill="#F579A0"/><path d="M39.951 17.147H4.381c-1.06 0-1.723-1.146-1.197-2.06L8.585 5.69c.25-.43.698-.689 1.19-.689H34.54c.491 0 .948.258 1.189.69l5.401 9.398a1.37 1.37 0 01-1.18 2.059z" fill="#FFBED3"/><path d="M29.769 31.292H14.555a.79.79 0 01-.792-.793v-7.374a.79.79 0 01.792-.792H29.77a.79.79 0 01.792.792V30.5a.79.79 0 01-.792.793z" fill="#FFE9F0"/><path d="M34.84 24.642c5.602 0 10.16 4.558 10.16 10.16 0 5.604-4.558 10.162-10.16 10.162-5.603 0-10.161-4.558-10.161-10.161s4.558-10.16 10.16-10.16z" fill="#FFBED3"/><path d="M30.136 34.803h9.407M34.84 30.1v9.406" stroke="#fff" stroke-width="1.846"/></svg>