<svg width="48" height="48" fill="none" xmlns="http://www.w3.org/2000/svg"><path d="M45 17.471v20.765a5.282 5.282 0 01-5.289 5.29H20.838a5.282 5.282 0 01-5.289-5.29V10.29A5.282 5.282 0 0120.838 5h11.69L45 17.471z" fill="#FB9650"/><path d="M24.58 25.993c0-5.958-4.832-10.79-10.79-10.79C7.83 15.204 3 20.036 3 25.994c0 5.96 4.83 10.79 10.79 10.79 5.958 0 10.79-4.83 10.79-10.79z" fill="#FDBF53"/><path d="M13.365 27.932l-3.67-3.655 3.67-3.683" stroke="#fff" stroke-width="1.81" stroke-miterlimit="10"/><path d="M9.42 24.159h5.033a3.262 3.262 0 013.263 3.262v0a3.262 3.262 0 01-3.263 3.263H11.99" stroke="#fff" stroke-width="1.81" stroke-miterlimit="10"/><path d="M32.529 17.244V5l12.244 12.244H32.53z" fill="#FDBF53"/><path d="M29.727 36.141l9-9.027M38.325 38.021a2.284 2.284 0 100-4.567 2.284 2.284 0 000 4.567zM30.05 29.747a2.284 2.284 0 100-4.567 2.284 2.284 0 000 4.567z" stroke="#FFD48A" stroke-width="2.172" stroke-miterlimit="10"/></svg>