<svg width="48" height="48" fill="none" xmlns="http://www.w3.org/2000/svg"><path d="M10.79 24.352l18.082-6.395a.732.732 0 011.03.675v4.69c0 .533.569.888 1.03.675l13.038-6.004a.732.732 0 011.03.675v18.899a3.411 3.411 0 01-3.41 3.41h-30.8V24.352z" fill="#7C6FF5"/><path d="M25.355 34.476h-3.34a.804.804 0 01-.816-.817v-2.557c0-.462.355-.817.817-.817h3.339c.462 0 .817.355.817.817v2.557a.804.804 0 01-.817.817zM35.089 34.476h-3.34a.804.804 0 01-.817-.817v-2.557c0-.462.356-.817.817-.817h3.34c.462 0 .817.355.817.817v2.557c0 .462-.391.817-.817.817z" fill="#EEECFF"/><path d="M5.284 10.995L3.01 37.674c-.142 1.776 1.243 3.303 3.02 3.303h6.714l-2.416-29.982A1.08 1.08 0 009.262 10H6.385c-.569 0-1.03.426-1.101.995z" fill="#B8B0FF"/></svg>