<svg width="40" height="40" fill="none" xmlns="http://www.w3.org/2000/svg"><circle cx="20" cy="20" r="20" fill="#F5F5F5"/><path d="M19.998 29.1c.9 0 1.6-.7 1.6-1.5 0-.9-.7-1.5-1.6-1.5-.9 0-1.6.7-1.6 1.5.1.8.8 1.5 1.6 1.5z" fill="#596C85"/><path d="M25 31H15c-1.3 0-2.3-1-2.3-2.2V11.2c0-1.2 1-2.2 2.3-2.2h10c1.3 0 2.3 1 2.3 2.2v17.5c0 1.3-1 2.3-2.3 2.3z" stroke="#596C85" stroke-width="1.8" stroke-miterlimit="10"/><path d="M21.6 17.5c1.5.6 2.6 2.1 2.6 3.9v.2c0 .3-.2.5-.5.5h-7.4c-.3 0-.5-.2-.5-.5v-.2c0-1.8 1.1-3.3 2.7-3.9" stroke="#596C85" stroke-width="1.8" stroke-miterlimit="10"/><path d="M20.1 18.1a2.4 2.4 0 100-4.8 2.4 2.4 0 000 4.8z" stroke="#596C85" stroke-width="1.8" stroke-miterlimit="10"/></svg>