<svg width="40" height="40" fill="none" xmlns="http://www.w3.org/2000/svg"><circle cx="20" cy="20" r="20" fill="#F5F5F5"/><path d="M16.502 27a1.9 1.9 0 100-3.8 1.9 1.9 0 000 3.8zM27.298 27a1.9 1.9 0 100-3.8 1.9 1.9 0 000 3.8z" stroke="#596C85" stroke-width="1.8" stroke-miterlimit="10" stroke-linecap="round" stroke-linejoin="round"/><path d="M11.602 22.5v1c0 .6.5 1.1 1.1 1.1h2M9 13h13.4c.6 0 1.1.5 1.1 1.1v10.4h-5.2M25.5 24.5h-2M23.5 17.5h5.3l2.2 3.8v3.2h-1.9M16.1 16.2h-5.8M17.802 19.3h-6.2" stroke="#596C85" stroke-width="1.8" stroke-miterlimit="10" stroke-linecap="round" stroke-linejoin="round"/></svg>