<svg width="40" height="40" fill="none" xmlns="http://www.w3.org/2000/svg"><circle cx="20" cy="20" r="20" fill="#F5F5F5"/><path d="M25.454 30H14c-1.09 0-2-.91-2-2V12c0-1.09.91-2 2-2h11.454c1.091 0 2 .91 2 2v16c0 1.09-.909 2-2 2z" stroke="#596C85" stroke-width="1.8" stroke-miterlimit="10"/><path d="M20.312 20.767h0c-.099-.076-.282-.158-.556-.246h0a4.17 4.17 0 01-.66-.268h0c-.448-.242-.681-.574-.681-.997 0-.217.06-.412.183-.583h0c.125-.173.3-.305.526-.4h0c.227-.094.48-.141.758-.141.281 0 .533.051.755.155m-.325 2.48l.304-2.435m-.304 2.435c.09.068.138.167.138.303a.327.327 0 01-.138.282c-.094.067-.229.104-.411.104-.248 0-.424-.052-.538-.148-.113-.094-.172-.237-.172-.439v-.05H18.296v.05c0 .257.066.486.198.683h0c.135.197.329.352.579.464h0c.25.11.526.165.828.165.433 0 .783-.096 1.046-.292h0a.978.978 0 00.398-.824c0-.312-.108-.575-.324-.786-.215-.209-.552-.38-1.006-.516m.297 1.004l-.297-1.004m.622-1.476s0 0 0 0l-.02.045m.02-.045s0 0 0 0l-.02.045m.02-.045a1.2 1.2 0 01.52.438m-.54-.393c.214.099.38.239.498.42l.042-.027s0 0 0 0m0 0c.125.19.188.405.188.645v.05H20.453v-.05c0-.165-.052-.286-.15-.372h0c-.099-.088-.241-.135-.434-.135-.187 0-.325.04-.42.114h-.001a.334.334 0 00-.141.282c0 .105.05.195.165.273.12.08.301.157.543.23m1.142-1.037l-1.142 1.038m-2.114 1.862l.012-.014v-1.602H16.3v.683H17.02v.591c-.114.104-.305.162-.585.162-.283 0-.491-.098-.633-.289-.144-.193-.22-.485-.22-.883v-.246c.002-.395.072-.684.205-.874.13-.188.319-.282.574-.282.203 0 .356.049.463.14v.001c.11.092.184.24.219.453l.006.042H17.92l-.006-.056c-.05-.425-.206-.753-.475-.98-.268-.228-.638-.34-1.101-.34-.335 0-.63.078-.884.233a1.487 1.487 0 00-.58.665h0a2.418 2.418 0 00-.196 1.017v.261h0c.003.38.074.712.213.996h0c.142.285.342.504.6.655h.001c.26.15.561.223.901.223.322 0 .617-.047.883-.143h0c.267-.097.477-.234.626-.413zm6.826-2.699h.05V18.185H21.546V18.926h1.161v3.202H23.6v-3.202h1.128z" fill="#596C85" stroke="#596C85" stroke-width=".1"/></svg>