<svg width="40" height="40" fill="none" xmlns="http://www.w3.org/2000/svg"><circle cx="20" cy="20" r="20" fill="#F5F5F5"/><path d="M30 15.778v12.025a1.47 1.47 0 01-1.46 1.476H11.46A1.47 1.47 0 0110 27.803V15.778a1.47 1.47 0 011.46-1.476h17.08c.816 0 1.46.673 1.46 1.476zM24.308 14.302h-8.593v-1.888c0-.934.752-1.693 1.675-1.693h5.242c.924 0 1.676.76 1.676 1.693v1.888z" stroke="#596C85" stroke-width="1.8" stroke-miterlimit="10" stroke-linecap="round" stroke-linejoin="round"/><path d="M19.195 19.794h-1.611v5.817h1.611v-5.817zM26.133 21.856h-1.611v3.755h1.61v-3.755zM15.715 20.988h-1.611v4.623h1.61v-4.623zM22.652 17.667h-1.611v7.922h1.611v-7.922z" fill="#596C85"/></svg>