<svg width="40" height="40" fill="none" xmlns="http://www.w3.org/2000/svg"><circle cx="20" cy="20" r="20" fill="#F5F5F5"/><path d="M19.383 19c.977 0 1.76.586 1.76 1.27 0 .782-.685 1.173-1.662 1.173h-.391m0-2.443h3.03m-3.03 1.173h3.03m-.978 3.518l-2.052-2.15" stroke="#596C85" stroke-miterlimit="10" stroke-linecap="round" stroke-linejoin="round"/><path d="M30 21.635a5.014 5.014 0 01-5.014 5.015h-10.94a4.047 4.047 0 010-8.092c.17 0 .33.012.501.035A5.236 5.236 0 0119.744 14c1.96 0 3.67 1.071 4.57 2.667A5.014 5.014 0 0130 21.636z" stroke="#596C85" stroke-width="1.8"/></svg>