<svg width="40" height="40" fill="none" xmlns="http://www.w3.org/2000/svg"><circle cx="20" cy="20" r="20" fill="#F5F5F5"/><path d="M24.182 30H15.09C13.909 30 13 29.09 13 28V12c0-1.09.91-2 2.09-2h9.092c1.182 0 2.09.91 2.09 2v15.91c0 1.18-.908 2.09-2.09 2.09z" stroke="#596C85" stroke-width="1.8" stroke-miterlimit="10"/><path d="M19.637 28.273c.818 0 1.454-.637 1.454-1.364 0-.818-.636-1.364-1.454-1.364-.819 0-1.455.637-1.455 1.364.09.727.727 1.364 1.455 1.364z" fill="#596C85"/><path d="M20.091 15l.727 1.455c.091.181.182.272.364.272l1.545.273c.455.09.546.546.273.818l-1.182 1.091a.694.694 0 0 0-.182.455l.273 1.545c.091.364-.363.727-.727.546l-1.273-.728c-.182-.09-.363-.09-.454 0L18 21.455c-.364.181-.818-.091-.727-.546l.273-1.545c0-.182 0-.364-.182-.455l-1.091-1.09c-.273-.273-.091-.819.273-.91l1.545-.273c.182 0 .273-.09.364-.272L19.273 15c.182-.364.636-.364.818 0z" stroke="#596C85" stroke-width="1.5" stroke-miterlimit="10"/></svg>