<svg width="40" height="40" fill="none" xmlns="http://www.w3.org/2000/svg"><circle cx="20" cy="20" r="20" fill="#F5F5F5"/><path d="M18.941 18.813a4.199 4.199 0 100-8.397 4.199 4.199 0 000 8.397z" stroke="#596C85" stroke-width="1.8" stroke-miterlimit="10" stroke-linecap="round" stroke-linejoin="round"/><path d="M22.136 27.667H12.004c-.64 0-1.187-.547-1.096-1.186.548-4.382 3.925-7.668 8.033-7.668 2.008 0 3.834.822 5.294 2.191" stroke="#596C85" stroke-width="1.8" stroke-miterlimit="10" stroke-linecap="round" stroke-linejoin="round"/><path d="M25.331 18.813l1.734 3.56 3.834.548-2.83 2.738.73 3.925-3.468-1.917-3.56 1.917.73-3.925-2.83-2.738 3.926-.548 1.734-3.56z" stroke="#596C85" stroke-width="1.8" stroke-miterlimit="10" stroke-linecap="round" stroke-linejoin="round"/></svg>