<svg width="49" height="48" fill="none" xmlns="http://www.w3.org/2000/svg"><circle cx="24.922" cy="24" r="24" fill="#F5F5F5"/><path d="M35.946 16.56c0 .897-.41 1.731-1.166 2.487-1.055 1.071-2.787 1.937-4.913 2.488-1.48.363-3.165.567-4.945.567-1.78 0-3.465-.204-4.96-.598-2.127-.536-3.843-1.417-4.914-2.488-.724-.725-1.15-1.575-1.15-2.457 0-3.07 4.93-5.559 11.024-5.559 6.079 0 11.024 2.488 11.024 5.56z" fill="#7C6FF5"/><path d="M35.946 16.56v4.96c0 .897-.41 1.732-1.166 2.488-1.055 1.07-2.787 1.937-4.913 2.488-1.48.362-3.165.567-4.945.567-1.78 0-3.465-.205-4.96-.598-2.127-.536-3.843-1.418-4.914-2.489-.724-.724-1.15-1.574-1.15-2.456v-4.96c0 .897.426 1.731 1.166 2.487 1.055 1.071 2.787 1.937 4.913 2.488 1.496.378 3.165.599 4.96.599 1.78 0 3.465-.205 4.961-.599 2.126-.535 3.843-1.417 4.914-2.488.709-.756 1.134-1.606 1.134-2.488z" fill="#89D6FF"/><path d="M35.946 21.52v4.96c0 .898-.41 1.733-1.166 2.489-1.81 1.826-5.543 3.07-9.858 3.07s-8.047-1.244-9.858-3.07c-.74-.756-1.166-1.607-1.166-2.489v-4.96c0 .897.426 1.732 1.166 2.488 1.055 1.07 2.787 1.937 4.913 2.488 1.48.362 3.165.567 4.945.567 1.78 0 3.465-.205 4.96-.598 2.127-.536 3.843-1.418 4.914-2.488.724-.725 1.15-1.575 1.15-2.457z" fill="#7C6FF5"/><path d="M35.946 26.48v4.96c0 3.072-4.93 5.56-11.024 5.56-6.079 0-11.024-2.488-11.024-5.56v-4.96c0 .898.426 1.732 1.166 2.488 1.81 1.827 5.543 3.071 9.858 3.071s8.047-1.244 9.858-3.07c.74-.757 1.166-1.607 1.166-2.489z" fill="#89D6FF"/></svg>