<svg width="48" height="48" fill="none" xmlns="http://www.w3.org/2000/svg"><circle cx="24" cy="24" r="24" fill="#F7F7F7"/><path d="M28.638 19.942a7.085 7.085 0 10-13.966 2.382 4.722 4.722 0 001.055 9.326h11.819a5.904 5.904 0 001.092-11.708z" fill="#FB9650"/><path d="M32.864 23.378A4.113 4.113 0 0029.014 29l-3.832 3.832v2.364h2.41v-1.182h1.135v-1.182h1.182l1.468-1.468a4.133 4.133 0 101.487-7.986z" fill="#FDBF53"/><path d="M32.273 23.437a4.113 4.113 0 00-3.265 5.569l-3.826 3.826v2.364h2.363v-1.182h1.182v-1.182h1.182l1.468-1.468-.034-.034c.299.123.61.21.93.26a4.117 4.117 0 000-8.153z" fill="#FDBF53"/><circle cx="32.81" cy="27.532" r="1.703" fill="#fff"/></svg>