<svg width="32" height="32" fill="none" xmlns="http://www.w3.org/2000/svg"><path d="M6 8a2 2 0 012-2h7.333a2 2 0 012 2v16.667a2 2 0 01-2 2H8a2 2 0 01-2-2V8z" fill="#53C3FF"/><path d="M14.667 17.333a2 2 0 012-2H24a2 2 0 012 2v7.334a2 2 0 01-2 2h-9.333v-9.334z" fill="#9BDCFF"/><rect x="8" y="8" width="2" height="2" rx=".5" fill="#D5FDE0"/><rect x="8" y="14" width="2" height="2" rx=".5" fill="#D5FDE0"/><rect x="13" y="11" width="2" height="2" rx=".5" fill="#D5FDE0"/><rect x="17" y="17" width="2" height="2" rx=".5" fill="#FAFFFB"/><rect x="22" y="19" width="2" height="2" rx=".5" fill="#FAFFFB"/></svg>