<svg width="40" height="40" fill="none" xmlns="http://www.w3.org/2000/svg"><circle cx="20" cy="20" r="20" fill="#F5F5F5"/><path d="M25.393 30H14.608a2.718 2.718 0 01-2.717-2.717V12.717c0-1.5 1.216-2.717 2.717-2.717h10.785c1.5 0 2.717 1.217 2.717 2.717v14.566c0 1.5-1.216 2.717-2.717 2.717z" stroke="#596C85" stroke-width="1.8"/><path d="M17.094 23.194l5.868-5.886" stroke="#596C85" stroke-width="1.8" stroke-miterlimit="10"/><path d="M22.7 24.42a1.489 1.489 0 100-2.978 1.489 1.489 0 000 2.978zM17.305 19.025a1.489 1.489 0 100-2.978 1.489 1.489 0 000 2.978z" stroke="#596C85" stroke-width="1.5" stroke-miterlimit="10"/></svg>