<svg width="48" height="48" fill="none" xmlns="http://www.w3.org/2000/svg"><circle cx="24" cy="24" r="24" fill="#F5F5F5"/><path d="M24.45 36.923C35.179 33.21 35.011 24.49 34.894 18.12c0-.653-.024-1.29-.024-1.9v-.637a.74.74 0 00-.741-.74h-.646c-3.614 0-6.243-.987-8.523-3.202l-.446-.432a.742.742 0 00-1.034 0l-.444.432c-2.283 2.215-4.911 3.202-8.523 3.202h-.64a.742.742 0 00-.742.74v.64c0 .61 0 1.244-.024 1.9-.122 6.367-.29 15.09 10.44 18.801.292.1.61.1.903-.002z" fill="#F579A0"/><path d="M27.766 20.867v-1.374c0-2.099-1.814-3.813-4.034-3.813-2.22 0-4.033 1.714-4.033 3.813v1.374c-1.095.09-1.939.946-1.939 2.01v4.818c0 1.123.954 2.025 2.142 2.025h7.676c1.189 0 2.142-.901 2.142-2.025v-4.818c0-1.064-.86-1.92-1.954-2.01zm-3.096 6.178a.232.232 0 01-.234.28h-1.423a.232.232 0 01-.234-.28l.469-1.744a1.062 1.062 0 01-.673-.975c0-.591.516-1.08 1.142-1.08.625 0 1.141.489 1.141 1.08 0 .428-.281.798-.672.975l.484 1.744zm1.048-6.192h-3.971v-1.345c0-1.035.89-1.877 1.985-1.877 1.095 0 1.986.842 1.986 1.877v1.345z" fill="#FFBED3"/></svg>